# Blender v3.1.2 OBJ File: 'methods_membrane.blend'
# www.blender.org
mtllib chip_test.mtl
o chip_substrate_Plane.008
v -6.000083 13.005416 7.110547
v 5.999917 13.005416 7.110547
v -6.000083 -4.014507 -1.334700
v 5.999917 -4.014507 -1.334700
v -6.000083 -3.881161 -1.603436
v -6.000083 13.138762 6.841812
v 5.999917 13.138762 6.841812
v 5.999917 -3.881161 -1.603436
vt 0.000000 0.000000
vt 0.000000 1.000000
vt 1.000000 1.000000
vt 1.000000 0.000000
vt 0.000000 0.000000
vt 1.000000 0.000000
vt 1.000000 1.000000
vt 0.000000 1.000000
vn 0.0000 -0.4445 0.8958
vn 0.0000 0.4445 -0.8958
vn 0.0000 0.8958 0.4445
vn 1.0000 0.0000 0.0000
vn -1.0000 0.0000 0.0000
vn 0.0000 -0.8958 -0.4445
g chip_substrate_Plane.008_Si.001
usemtl Si.001
s off
f 1/1/1 3/2/1 4/3/1 2/4/1
f 6/5/2 7/6/2 8/7/2 5/8/2
f 1/1/3 2/4/3 7/6/3 6/5/3
f 2/4/4 4/3/4 8/7/4 7/6/4
f 3/2/5 1/1/5 6/5/5 5/8/5
f 4/3/6 3/2/6 5/8/6 8/7/6
