{
    "asset" : {
        "generator" : "Khronos glTF Blender I/O v1.8.19",
        "version" : "2.0"
    },
    "extensionsUsed" : [
        "KHR_materials_transmission"
    ],
    "scene" : 0,
    "scenes" : [
        {
            "name" : "Scene",
            "nodes" : [
                0
            ]
        }
    ],
    "nodes" : [
        {
            "mesh" : 0,
            "name" : "ultrasound_window",
            "rotation" : [
                0.12201028317213058,
                0.47474414110183716,
                -0.5713611245155334,
                -0.6582385301589966
            ],
            "scale" : [
                3.0078911781311035,
                3.0078914165496826,
                3.0078914165496826
            ],
            "translation" : [
                74.41732025146484,
                -136.49229431152344,
                -34.9561882019043
            ]
        }
    ],
    "animations" : [
        {
            "channels" : [
                {
                    "sampler" : 0,
                    "target" : {
                        "node" : 0,
                        "path" : "weights"
                    }
                }
            ],
            "name" : "KeyAction.001",
            "samplers" : [
                {
                    "input" : 6,
                    "interpolation" : "LINEAR",
                    "output" : 7
                }
            ]
        }
    ],
    "materials" : [
        {
            "extensions" : {
                "KHR_materials_transmission" : {
                    "transmissionFactor" : 0.46213316917419434
                }
            },
            "name" : "3D printed PP.001",
            "pbrMetallicRoughness" : {
                "metallicFactor" : 0.6062992215156555,
                "roughnessFactor" : 0.5472440719604492
            }
        }
    ],
    "meshes" : [
        {
            "extras" : {
                "targetNames" : [
                    "Key 1"
                ]
            },
            "name" : "Plane.037",
            "primitives" : [
                {
                    "attributes" : {
                        "POSITION" : 0,
                        "NORMAL" : 1,
                        "TEXCOORD_0" : 2
                    },
                    "indices" : 3,
                    "material" : 0,
                    "targets" : [
                        {
                            "POSITION" : 4,
                            "NORMAL" : 5
                        }
                    ]
                }
            ],
            "weights" : [
                0
            ]
        }
    ],
    "accessors" : [
        {
            "bufferView" : 0,
            "componentType" : 5126,
            "count" : 4796,
            "max" : [
                19.43543243408203,
                24.27461051940918,
                11.34916877746582
            ],
            "min" : [
                -6.278017997741699,
                -24.27461051940918,
                -22.632465362548828
            ],
            "type" : "VEC3"
        },
        {
            "bufferView" : 1,
            "componentType" : 5126,
            "count" : 4796,
            "type" : "VEC3"
        },
        {
            "bufferView" : 2,
            "componentType" : 5126,
            "count" : 4796,
            "type" : "VEC2"
        },
        {
            "bufferView" : 3,
            "componentType" : 5123,
            "count" : 7146,
            "type" : "SCALAR"
        },
        {
            "bufferView" : 4,
            "componentType" : 5126,
            "count" : 4796,
            "max" : [
                3.070244312286377,
                6.164065361022949,
                9.689092636108398
            ],
            "min" : [
                -9.181461334228516,
                -5.166936874389648,
                -4.344883918762207
            ],
            "type" : "VEC3"
        },
        {
            "bufferView" : 5,
            "componentType" : 5126,
            "count" : 4796,
            "type" : "VEC3"
        },
        {
            "bufferView" : 6,
            "componentType" : 5126,
            "count" : 60,
            "max" : [
                2.5
            ],
            "min" : [
                0.041666666666666664
            ],
            "type" : "SCALAR"
        },
        {
            "bufferView" : 7,
            "componentType" : 5126,
            "count" : 60,
            "type" : "SCALAR"
        }
    ],
    "bufferViews" : [
        {
            "buffer" : 0,
            "byteLength" : 57552,
            "byteOffset" : 0
        },
        {
            "buffer" : 0,
            "byteLength" : 57552,
            "byteOffset" : 57552
        },
        {
            "buffer" : 0,
            "byteLength" : 38368,
            "byteOffset" : 115104
        },
        {
            "buffer" : 0,
            "byteLength" : 14292,
            "byteOffset" : 153472
        },
        {
            "buffer" : 0,
            "byteLength" : 57552,
            "byteOffset" : 167764
        },
        {
            "buffer" : 0,
            "byteLength" : 57552,
            "byteOffset" : 225316
        },
        {
            "buffer" : 0,
            "byteLength" : 240,
            "byteOffset" : 282868
        },
        {
            "buffer" : 0,
            "byteLength" : 240,
            "byteOffset" : 283108
        }
    ],
    "buffers" : [
        {
            "byteLength" : 283348,
            "uri" : "data:application/octet-stream;base64,"
        }
    ]
}
