{
    "asset" : {
        "generator" : "Khronos glTF Blender I/O v1.8.19",
        "version" : "2.0"
    },
    "extensionsUsed" : [
        "KHR_materials_transmission"
    ],
    "scene" : 0,
    "scenes" : [
        {
            "name" : "Scene",
            "nodes" : [
                0
            ]
        }
    ],
    "nodes" : [
        {
            "mesh" : 0,
            "name" : "ultrasound_window.001",
            "rotation" : [
                0.12201028317213058,
                0.47474414110183716,
                -0.5713611245155334,
                -0.6582385301589966
            ],
            "scale" : [
                3.0078911781311035,
                3.0078914165496826,
                3.0078914165496826
            ],
            "translation" : [
                -71.63220977783203,
                -136.49229431152344,
                -34.9561882019043
            ]
        }
    ],
    "animations" : [
        {
            "channels" : [
                {
                    "sampler" : 0,
                    "target" : {
                        "node" : 0,
                        "path" : "weights"
                    }
                }
            ],
            "name" : "Key.001Action",
            "samplers" : [
                {
                    "input" : 8,
                    "interpolation" : "LINEAR",
                    "output" : 9
                }
            ]
        }
    ],
    "materials" : [
        {
            "extensions" : {
                "KHR_materials_transmission" : {
                    "transmissionFactor" : 0.46213316917419434
                }
            },
            "name" : "3D printed PP.001",
            "pbrMetallicRoughness" : {
                "metallicFactor" : 0.6062992215156555,
                "roughnessFactor" : 0.5472440719604492
            }
        }
    ],
    "meshes" : [
        {
            "extras" : {
                "targetNames" : [
                    "Key 1",
                    "Key 2"
                ]
            },
            "name" : "Plane.001",
            "primitives" : [
                {
                    "attributes" : {
                        "POSITION" : 0,
                        "NORMAL" : 1,
                        "TEXCOORD_0" : 2
                    },
                    "indices" : 3,
                    "material" : 0,
                    "targets" : [
                        {
                            "POSITION" : 4,
                            "NORMAL" : 5
                        },
                        {
                            "POSITION" : 6,
                            "NORMAL" : 7
                        }
                    ]
                }
            ],
            "weights" : [
                0,
                0
            ]
        }
    ],
    "accessors" : [
        {
            "bufferView" : 0,
            "componentType" : 5126,
            "count" : 9579,
            "max" : [
                19.43543243408203,
                24.27461051940918,
                11.34916877746582
            ],
            "min" : [
                -11.311813354492188,
                -55.17222213745117,
                -59.74892044067383
            ],
            "type" : "VEC3"
        },
        {
            "bufferView" : 1,
            "componentType" : 5126,
            "count" : 9579,
            "type" : "VEC3"
        },
        {
            "bufferView" : 2,
            "componentType" : 5126,
            "count" : 9579,
            "type" : "VEC2"
        },
        {
            "bufferView" : 3,
            "componentType" : 5123,
            "count" : 14292,
            "type" : "SCALAR"
        },
        {
            "bufferView" : 4,
            "componentType" : 5126,
            "count" : 9579,
            "max" : [
                3.235280990600586,
                6.4954071044921875,
                10.20993423461914
            ],
            "min" : [
                -9.67501449584961,
                -5.444692611694336,
                -4.578439712524414
            ],
            "type" : "VEC3"
        },
        {
            "bufferView" : 5,
            "componentType" : 5126,
            "count" : 9579,
            "type" : "VEC3"
        },
        {
            "bufferView" : 6,
            "componentType" : 5126,
            "count" : 9579,
            "max" : [
                2.5248336791992188,
                7.57234001159668,
                13.120550155639648
            ],
            "min" : [
                -8.287466049194336,
                -12.615649223327637,
                -5.5013251304626465
            ],
            "type" : "VEC3"
        },
        {
            "bufferView" : 7,
            "componentType" : 5126,
            "count" : 9579,
            "type" : "VEC3"
        },
        {
            "bufferView" : 8,
            "componentType" : 5126,
            "count" : 60,
            "max" : [
                2.5
            ],
            "min" : [
                0.041666666666666664
            ],
            "type" : "SCALAR"
        },
        {
            "bufferView" : 9,
            "componentType" : 5126,
            "count" : 120,
            "type" : "SCALAR"
        }
    ],
    "bufferViews" : [
        {
            "buffer" : 0,
            "byteLength" : 114948,
            "byteOffset" : 0
        },
        {
            "buffer" : 0,
            "byteLength" : 114948,
            "byteOffset" : 114948
        },
        {
            "buffer" : 0,
            "byteLength" : 76632,
            "byteOffset" : 229896
        },
        {
            "buffer" : 0,
            "byteLength" : 28584,
            "byteOffset" : 306528
        },
        {
            "buffer" : 0,
            "byteLength" : 114948,
            "byteOffset" : 335112
        },
        {
            "buffer" : 0,
            "byteLength" : 114948,
            "byteOffset" : 450060
        },
        {
            "buffer" : 0,
            "byteLength" : 114948,
            "byteOffset" : 565008
        },
        {
            "buffer" : 0,
            "byteLength" : 114948,
            "byteOffset" : 679956
        },
        {
            "buffer" : 0,
            "byteLength" : 240,
            "byteOffset" : 794904
        },
        {
            "buffer" : 0,
            "byteLength" : 480,
            "byteOffset" : 795144
        }
    ],
    "buffers" : [
        {
            "byteLength" : 795624,
            "uri" : "data:application/octet-stream;base64,"
        }
    ]
}
