{
	"asset":{
		"generator":"Khronos glTF Blender I/O v5.0.21",
		"version":"2.0"
	},
	"scene":0,
	"scenes":[
		{
			"name":"Scene",
			"nodes":[
				0,
				1
			]
		}
	],
	"nodes":[
		{
			"mesh":0,
			"name":"Neuron_applied",
			"rotation":[
				0.6874814629554749,
				-0.16479463875293732,
				0.16471625864505768,
				0.6878085732460022
			],
			"scale":[
				0.46177124977111816,
				0.46177124977111816,
				0.46177124977111816
			],
			"translation":[
				-1.374529242515564,
				0.0014429092407226562,
				2.703794002532959
			]
		},
		{
			"mesh":1,
			"name":"Neuron_text",
			"rotation":[
				0.6028833389282227,
				0.3695019483566284,
				-0.3695019781589508,
				0.6028833389282227
			],
			"translation":[
				-0.600864589214325,
				1.274574637413025,
				1.1796468496322632
			]
		}
	],
	"materials":[
		{
			"alphaMode":"BLEND",
			"doubleSided":true,
			"name":"Neuron_outer",
			"pbrMetallicRoughness":{
				"baseColorFactor":[
					1,
					0.2133370339870453,
					0.35966405272483826,
					0.2799999713897705
				],
				"metallicFactor":0
			}
		},
		{
			"doubleSided":true,
			"name":"Neuron_nucleus",
			"pbrMetallicRoughness":{
				"baseColorFactor":[
					0.005579054355621338,
					0.013722142204642296,
					0.6543581485748291,
					1
				],
				"metallicFactor":0.08799999952316284
			}
		},
		{
			"name":"Black.001",
			"pbrMetallicRoughness":{
				"baseColorFactor":[
					0,
					0,
					0,
					1
				],
				"metallicFactor":0
			}
		},
		{
			"doubleSided":true,
			"name":"Black",
			"pbrMetallicRoughness":{
				"baseColorFactor":[
					0,
					0,
					0,
					1
				]
			}
		}
	],
	"meshes":[
		{
			"name":"Icosphere.002",
			"primitives":[
				{
					"attributes":{
						"POSITION":0,
						"NORMAL":1
					},
					"indices":2,
					"material":0
				},
				{
					"attributes":{
						"POSITION":3,
						"NORMAL":4
					},
					"indices":5,
					"material":1
				},
				{
					"attributes":{
						"POSITION":6,
						"NORMAL":7
					},
					"indices":8,
					"material":2
				}
			]
		},
		{
			"name":"Text.005",
			"primitives":[
				{
					"attributes":{
						"POSITION":9,
						"NORMAL":10,
						"TEXCOORD_0":11
					},
					"indices":12,
					"material":3
				}
			]
		}
	],
	"accessors":[
		{
			"bufferView":0,
			"componentType":5126,
			"count":9712,
			"max":[
				1.4474998712539673,
				4.795264720916748,
				4.428335189819336
			],
			"min":[
				-0.44795742630958557,
				-16.85936737060547,
				-5.805204391479492
			],
			"type":"VEC3"
		},
		{
			"bufferView":1,
			"componentType":5126,
			"count":9712,
			"type":"VEC3"
		},
		{
			"bufferView":2,
			"componentType":5123,
			"count":9720,
			"type":"SCALAR"
		},
		{
			"bufferView":3,
			"componentType":5126,
			"count":822,
			"max":[
				0.6518215537071228,
				0.0019727516919374466,
				0.8128119707107544
			],
			"min":[
				0.0697965994477272,
				-0.9054234027862549,
				-0.42404869198799133
			],
			"type":"VEC3"
		},
		{
			"bufferView":4,
			"componentType":5126,
			"count":822,
			"type":"VEC3"
		},
		{
			"bufferView":5,
			"componentType":5123,
			"count":822,
			"type":"SCALAR"
		},
		{
			"bufferView":6,
			"componentType":5126,
			"count":10518,
			"max":[
				1.465759038925171,
				4.822537422180176,
				4.4555439949035645
			],
			"min":[
				-0.47788870334625244,
				-16.884965896606445,
				-5.834578990936279
			],
			"type":"VEC3"
		},
		{
			"bufferView":7,
			"componentType":5126,
			"count":10518,
			"type":"VEC3"
		},
		{
			"bufferView":8,
			"componentType":5123,
			"count":10518,
			"type":"SCALAR"
		},
		{
			"bufferView":9,
			"componentType":5126,
			"count":2238,
			"max":[
				3.147000312805176,
				0,
				0.009000000543892384
			],
			"min":[
				0.07400000095367432,
				-0.07357995957136154,
				-0.6820000410079956
			],
			"type":"VEC3"
		},
		{
			"bufferView":10,
			"componentType":5126,
			"count":2238,
			"type":"VEC3"
		},
		{
			"bufferView":11,
			"componentType":5126,
			"count":2238,
			"type":"VEC2"
		},
		{
			"bufferView":12,
			"componentType":5123,
			"count":4428,
			"type":"SCALAR"
		}
	],
	"bufferViews":[
		{
			"buffer":0,
			"byteLength":116544,
			"byteOffset":0,
			"target":34962
		},
		{
			"buffer":0,
			"byteLength":116544,
			"byteOffset":116544,
			"target":34962
		},
		{
			"buffer":0,
			"byteLength":19440,
			"byteOffset":233088,
			"target":34963
		},
		{
			"buffer":0,
			"byteLength":9864,
			"byteOffset":252528,
			"target":34962
		},
		{
			"buffer":0,
			"byteLength":9864,
			"byteOffset":262392,
			"target":34962
		},
		{
			"buffer":0,
			"byteLength":1644,
			"byteOffset":272256,
			"target":34963
		},
		{
			"buffer":0,
			"byteLength":126216,
			"byteOffset":273900,
			"target":34962
		},
		{
			"buffer":0,
			"byteLength":126216,
			"byteOffset":400116,
			"target":34962
		},
		{
			"buffer":0,
			"byteLength":21036,
			"byteOffset":526332,
			"target":34963
		},
		{
			"buffer":0,
			"byteLength":26856,
			"byteOffset":547368,
			"target":34962
		},
		{
			"buffer":0,
			"byteLength":26856,
			"byteOffset":574224,
			"target":34962
		},
		{
			"buffer":0,
			"byteLength":17904,
			"byteOffset":601080,
			"target":34962
		},
		{
			"buffer":0,
			"byteLength":8856,
			"byteOffset":618984,
			"target":34963
		}
	],
	"buffers":[
		{
			"byteLength":627840,
			"uri":"Neuron_gltf.bin"
		}
	]
}
