{
	"asset":{
		"generator":"Khronos glTF Blender I/O v5.0.21",
		"version":"2.0"
	},
	"extensionsUsed":[
		"KHR_materials_transmission",
		"KHR_materials_specular",
		"KHR_materials_ior"
	],
	"scene":0,
	"scenes":[
		{
			"name":"Scene",
			"nodes":[
				0,
				1
			]
		}
	],
	"nodes":[
		{
			"mesh":0,
			"name":"OECT.001",
			"translation":[
				0,
				0,
				-0.14750880002975464
			]
		},
		{
			"mesh":1,
			"name":"OECT_text.001",
			"rotation":[
				0.5,
				0.5,
				-0.5,
				0.5
			],
			"translation":[
				0,
				0.7011461853981018,
				1.099853754043579
			]
		}
	],
	"materials":[
		{
			"doubleSided":true,
			"name":"Electrode_conducting",
			"pbrMetallicRoughness":{
				"baseColorFactor":[
					0.6284830570220947,
					0.403205007314682,
					0,
					1
				],
				"metallicFactor":0.5,
				"roughnessFactor":0
			}
		},
		{
			"alphaMode":"BLEND",
			"doubleSided":true,
			"extensions":{
				"KHR_materials_specular":{
					"specularColorFactor":[
						1.0634920597076416,
						1.0634920597076416,
						1.0634920597076416
					]
				},
				"KHR_materials_ior":{
					"ior":1
				}
			},
			"name":"Substrate",
			"pbrMetallicRoughness":{
				"baseColorFactor":[
					0.229936420917511,
					0.2539304792881012,
					0.3274810016155243,
					0.6480000019073486
				],
				"metallicFactor":0.8359999656677246,
				"roughnessFactor":0
			}
		},
		{
			"alphaMode":"BLEND",
			"extensions":{
				"KHR_materials_transmission":{
					"transmissionFactor":1
				}
			},
			"name":"PEDOT:PSS",
			"pbrMetallicRoughness":{
				"baseColorFactor":[
					0.05977834016084671,
					0.43932145833969116,
					0.800070583820343,
					0.6000000238418579
				],
				"roughnessFactor":0
			}
		},
		{
			"doubleSided":true,
			"name":"Black",
			"pbrMetallicRoughness":{
				"baseColorFactor":[
					0,
					0,
					0,
					1
				]
			}
		}
	],
	"meshes":[
		{
			"name":"Cube.005",
			"primitives":[
				{
					"attributes":{
						"POSITION":0,
						"NORMAL":1
					},
					"indices":2,
					"material":0
				},
				{
					"attributes":{
						"POSITION":3,
						"NORMAL":4
					},
					"indices":5,
					"material":1
				},
				{
					"attributes":{
						"POSITION":6,
						"NORMAL":7
					},
					"indices":8,
					"material":2
				}
			]
		},
		{
			"name":"Text.003",
			"primitives":[
				{
					"attributes":{
						"POSITION":9,
						"NORMAL":10,
						"TEXCOORD_0":11
					},
					"indices":12,
					"material":3
				}
			]
		}
	],
	"accessors":[
		{
			"bufferView":0,
			"componentType":5126,
			"count":48,
			"max":[
				1,
				0.05000000074505806,
				2.299999952316284
			],
			"min":[
				-1,
				0,
				-2.299999952316284
			],
			"type":"VEC3"
		},
		{
			"bufferView":1,
			"componentType":5126,
			"count":48,
			"type":"VEC3"
		},
		{
			"bufferView":2,
			"componentType":5123,
			"count":72,
			"type":"SCALAR"
		},
		{
			"bufferView":3,
			"componentType":5126,
			"count":24,
			"max":[
				2,
				0,
				3
			],
			"min":[
				-2,
				-1,
				-3
			],
			"type":"VEC3"
		},
		{
			"bufferView":4,
			"componentType":5126,
			"count":24,
			"type":"VEC3"
		},
		{
			"bufferView":5,
			"componentType":5123,
			"count":36,
			"type":"SCALAR"
		},
		{
			"bufferView":6,
			"componentType":5126,
			"count":4610,
			"max":[
				0.7994202375411987,
				0.21130801737308502,
				1.5989896059036255
			],
			"min":[
				-0.8001788854598999,
				-0.00018273666501045227,
				-1.6019861698150635
			],
			"type":"VEC3"
		},
		{
			"bufferView":7,
			"componentType":5126,
			"count":4610,
			"type":"VEC3"
		},
		{
			"bufferView":8,
			"componentType":5123,
			"count":27648,
			"type":"SCALAR"
		},
		{
			"bufferView":9,
			"componentType":5126,
			"count":1288,
			"max":[
				2.618000030517578,
				0,
				0.009000000543892384
			],
			"min":[
				0.04500000178813934,
				-0.10929384082555771,
				-0.6910000443458557
			],
			"type":"VEC3"
		},
		{
			"bufferView":10,
			"componentType":5126,
			"count":1288,
			"type":"VEC3"
		},
		{
			"bufferView":11,
			"componentType":5126,
			"count":1288,
			"type":"VEC2"
		},
		{
			"bufferView":12,
			"componentType":5123,
			"count":2532,
			"type":"SCALAR"
		}
	],
	"bufferViews":[
		{
			"buffer":0,
			"byteLength":576,
			"byteOffset":0,
			"target":34962
		},
		{
			"buffer":0,
			"byteLength":576,
			"byteOffset":576,
			"target":34962
		},
		{
			"buffer":0,
			"byteLength":144,
			"byteOffset":1152,
			"target":34963
		},
		{
			"buffer":0,
			"byteLength":288,
			"byteOffset":1296,
			"target":34962
		},
		{
			"buffer":0,
			"byteLength":288,
			"byteOffset":1584,
			"target":34962
		},
		{
			"buffer":0,
			"byteLength":72,
			"byteOffset":1872,
			"target":34963
		},
		{
			"buffer":0,
			"byteLength":55320,
			"byteOffset":1944,
			"target":34962
		},
		{
			"buffer":0,
			"byteLength":55320,
			"byteOffset":57264,
			"target":34962
		},
		{
			"buffer":0,
			"byteLength":55296,
			"byteOffset":112584,
			"target":34963
		},
		{
			"buffer":0,
			"byteLength":15456,
			"byteOffset":167880,
			"target":34962
		},
		{
			"buffer":0,
			"byteLength":15456,
			"byteOffset":183336,
			"target":34962
		},
		{
			"buffer":0,
			"byteLength":10304,
			"byteOffset":198792,
			"target":34962
		},
		{
			"buffer":0,
			"byteLength":5064,
			"byteOffset":209096,
			"target":34963
		}
	],
	"buffers":[
		{
			"byteLength":214160,
			"uri":"OECT_gltf.bin"
		}
	]
}
