{
	"asset":{
		"generator":"Khronos glTF Blender I/O v5.0.21",
		"version":"2.0"
	},
	"extensionsUsed":[
		"KHR_materials_transmission",
		"KHR_materials_specular",
		"KHR_materials_ior"
	],
	"scene":0,
	"scenes":[
		{
			"name":"Scene",
			"nodes":[
				0,
				1
			]
		}
	],
	"nodes":[
		{
			"mesh":0,
			"name":"vOECT.001"
		},
		{
			"mesh":1,
			"name":"vOECT_text.001",
			"rotation":[
				0.5,
				0.5,
				-0.5,
				0.5
			],
			"translation":[
				0,
				1.274574637413025,
				1.3238599300384521
			]
		}
	],
	"materials":[
		{
			"doubleSided":true,
			"name":"Electrode_conducting",
			"pbrMetallicRoughness":{
				"baseColorFactor":[
					0.6284830570220947,
					0.403205007314682,
					0,
					1
				],
				"metallicFactor":0.5,
				"roughnessFactor":0
			}
		},
		{
			"alphaMode":"BLEND",
			"doubleSided":true,
			"extensions":{
				"KHR_materials_transmission":{
					"transmissionFactor":1
				},
				"KHR_materials_ior":{
					"ior":1.4500000476837158
				}
			},
			"name":"Step_layer",
			"pbrMetallicRoughness":{
				"baseColorFactor":[
					0.32748347520828247,
					0.32748347520828247,
					0.32748347520828247,
					0.3209524154663086
				],
				"roughnessFactor":0.6159999966621399
			}
		},
		{
			"alphaMode":"BLEND",
			"doubleSided":true,
			"extensions":{
				"KHR_materials_specular":{
					"specularColorFactor":[
						1.0634920597076416,
						1.0634920597076416,
						1.0634920597076416
					]
				},
				"KHR_materials_ior":{
					"ior":1
				}
			},
			"name":"Substrate",
			"pbrMetallicRoughness":{
				"baseColorFactor":[
					0.229936420917511,
					0.2539304792881012,
					0.3274810016155243,
					0.6480000019073486
				],
				"metallicFactor":0.8359999656677246,
				"roughnessFactor":0
			}
		},
		{
			"alphaMode":"BLEND",
			"extensions":{
				"KHR_materials_transmission":{
					"transmissionFactor":1
				}
			},
			"name":"PEDOT:PSS",
			"pbrMetallicRoughness":{
				"baseColorFactor":[
					0.05977834016084671,
					0.43932145833969116,
					0.800070583820343,
					0.6000000238418579
				],
				"roughnessFactor":0
			}
		},
		{
			"doubleSided":true,
			"name":"Black",
			"pbrMetallicRoughness":{
				"baseColorFactor":[
					0,
					0,
					0,
					1
				]
			}
		}
	],
	"meshes":[
		{
			"name":"Cube.004",
			"primitives":[
				{
					"attributes":{
						"POSITION":0,
						"NORMAL":1
					},
					"indices":2,
					"material":0
				},
				{
					"attributes":{
						"POSITION":3,
						"NORMAL":4
					},
					"indices":5,
					"material":1
				},
				{
					"attributes":{
						"POSITION":6,
						"NORMAL":7
					},
					"indices":8,
					"material":2
				},
				{
					"attributes":{
						"POSITION":9,
						"NORMAL":10
					},
					"indices":11,
					"material":3
				}
			]
		},
		{
			"name":"Text.002",
			"primitives":[
				{
					"attributes":{
						"POSITION":12,
						"NORMAL":13,
						"TEXCOORD_0":14
					},
					"indices":15,
					"material":4
				}
			]
		}
	],
	"accessors":[
		{
			"bufferView":0,
			"componentType":5126,
			"count":48,
			"max":[
				1,
				0.559999942779541,
				1.5
			],
			"min":[
				-1,
				0.009999999776482582,
				-1.5
			],
			"type":"VEC3"
		},
		{
			"bufferView":1,
			"componentType":5126,
			"count":48,
			"type":"VEC3"
		},
		{
			"bufferView":2,
			"componentType":5123,
			"count":72,
			"type":"SCALAR"
		},
		{
			"bufferView":3,
			"componentType":5126,
			"count":8,
			"max":[
				2,
				0.5,
				-2.384185791015625e-07
			],
			"min":[
				-2,
				0,
				-2.000000238418579
			],
			"type":"VEC3"
		},
		{
			"bufferView":4,
			"componentType":5126,
			"count":8,
			"type":"VEC3"
		},
		{
			"bufferView":5,
			"componentType":5123,
			"count":36,
			"type":"SCALAR"
		},
		{
			"bufferView":6,
			"componentType":5126,
			"count":24,
			"max":[
				2,
				0,
				2
			],
			"min":[
				-2,
				-1,
				-2
			],
			"type":"VEC3"
		},
		{
			"bufferView":7,
			"componentType":5126,
			"count":24,
			"type":"VEC3"
		},
		{
			"bufferView":8,
			"componentType":5123,
			"count":36,
			"type":"SCALAR"
		},
		{
			"bufferView":9,
			"componentType":5126,
			"count":4514,
			"max":[
				0.3004513084888458,
				0.7204073071479797,
				0.7971992492675781
			],
			"min":[
				-0.2997432351112366,
				0.009582852944731712,
				-0.798052191734314
			],
			"type":"VEC3"
		},
		{
			"bufferView":10,
			"componentType":5126,
			"count":4514,
			"type":"VEC3"
		},
		{
			"bufferView":11,
			"componentType":5123,
			"count":26880,
			"type":"SCALAR"
		},
		{
			"bufferView":12,
			"componentType":5126,
			"count":1330,
			"max":[
				3.056000232696533,
				0,
				0.009000000543892384
			],
			"min":[
				0.003000000026077032,
				-0.10929384082555771,
				-0.6910000443458557
			],
			"type":"VEC3"
		},
		{
			"bufferView":13,
			"componentType":5126,
			"count":1330,
			"type":"VEC3"
		},
		{
			"bufferView":14,
			"componentType":5126,
			"count":1330,
			"type":"VEC2"
		},
		{
			"bufferView":15,
			"componentType":5123,
			"count":2604,
			"type":"SCALAR"
		}
	],
	"bufferViews":[
		{
			"buffer":0,
			"byteLength":576,
			"byteOffset":0,
			"target":34962
		},
		{
			"buffer":0,
			"byteLength":576,
			"byteOffset":576,
			"target":34962
		},
		{
			"buffer":0,
			"byteLength":144,
			"byteOffset":1152,
			"target":34963
		},
		{
			"buffer":0,
			"byteLength":96,
			"byteOffset":1296,
			"target":34962
		},
		{
			"buffer":0,
			"byteLength":96,
			"byteOffset":1392,
			"target":34962
		},
		{
			"buffer":0,
			"byteLength":72,
			"byteOffset":1488,
			"target":34963
		},
		{
			"buffer":0,
			"byteLength":288,
			"byteOffset":1560,
			"target":34962
		},
		{
			"buffer":0,
			"byteLength":288,
			"byteOffset":1848,
			"target":34962
		},
		{
			"buffer":0,
			"byteLength":72,
			"byteOffset":2136,
			"target":34963
		},
		{
			"buffer":0,
			"byteLength":54168,
			"byteOffset":2208,
			"target":34962
		},
		{
			"buffer":0,
			"byteLength":54168,
			"byteOffset":56376,
			"target":34962
		},
		{
			"buffer":0,
			"byteLength":53760,
			"byteOffset":110544,
			"target":34963
		},
		{
			"buffer":0,
			"byteLength":15960,
			"byteOffset":164304,
			"target":34962
		},
		{
			"buffer":0,
			"byteLength":15960,
			"byteOffset":180264,
			"target":34962
		},
		{
			"buffer":0,
			"byteLength":10640,
			"byteOffset":196224,
			"target":34962
		},
		{
			"buffer":0,
			"byteLength":5208,
			"byteOffset":206864,
			"target":34963
		}
	],
	"buffers":[
		{
			"byteLength":212072,
			"uri":"vOECT_gltf.bin"
		}
	]
}
