{
	"asset":{
		"generator":"Khronos glTF Blender I/O v5.0.21",
		"version":"2.0"
	},
	"extensionsUsed":[
		"KHR_materials_specular"
	],
	"scene":0,
	"scenes":[
		{
			"name":"Scene",
			"nodes":[
				0,
				1,
				3,
				4,
				8,
				9
			]
		}
	],
	"nodes":[
		{
			"mesh":0,
			"name":"Housing_bottom",
			"rotation":[
				0,
				0,
				-1,
				0
			],
			"scale":[
				-0.10000002384185791,
				-0.10000002384185791,
				-0.10000002384185791
			],
			"translation":[
				-1.9341576099395752,
				-0.10787969827651978,
				5.064596176147461
			]
		},
		{
			"mesh":1,
			"name":"Housing",
			"rotation":[
				0,
				0,
				-1,
				0
			],
			"scale":[
				-0.10000002384185791,
				-0.10000002384185791,
				-0.10000002384185791
			],
			"translation":[
				-1.9341576099395752,
				-0.10787969827651978,
				5.064596176147461
			]
		},
		{
			"mesh":2,
			"name":"RHS2116_32",
			"rotation":[
				0,
				0.7071067094802856,
				0,
				0.7071068286895752
			],
			"translation":[
				34.22283935546875,
				-1.643601417541504,
				8.222782135009766
			]
		},
		{
			"children":[
				2
			],
			"mesh":3,
			"name":"FFC_to_pin_headers",
			"scale":[
				0.10000002384185791,
				0.10000002384185791,
				0.10000002384185791
			],
			"translation":[
				-1.073136568069458,
				0.4097408652305603,
				5.0014495849609375
			]
		},
		{
			"mesh":4,
			"name":"FFC",
			"rotation":[
				0,
				-0.7071068286895752,
				0,
				0.7071068286895752
			],
			"scale":[
				0.10000002384185791,
				0.10000002384185791,
				0.10000002384185791
			],
			"translation":[
				-2.3771755695343018,
				0.3162350058555603,
				7.406101226806641
			]
		},
		{
			"mesh":5,
			"name":"gdsii_1",
			"rotation":[
				0,
				0.7071068286895752,
				0,
				0.7071068286895752
			],
			"scale":[
				1.4999998807907104,
				1,
				1
			],
			"translation":[
				75.01496887207031,
				-0.08231210708618164,
				-0.16522979736328125
			]
		},
		{
			"mesh":6,
			"name":"gdsii_2",
			"rotation":[
				0,
				0.7071068286895752,
				0,
				0.7071068286895752
			],
			"scale":[
				1.4999998807907104,
				1,
				1
			],
			"translation":[
				75.01496887207031,
				-0.08231210708618164,
				-0.16522979736328125
			]
		},
		{
			"mesh":7,
			"name":"gdsii_3",
			"rotation":[
				0,
				0.7071068286895752,
				0,
				0.7071068286895752
			],
			"scale":[
				1.4999998807907104,
				1,
				1
			],
			"translation":[
				75.01496887207031,
				0.003908634185791016,
				-0.16522979736328125
			]
		},
		{
			"children":[
				5,
				6,
				7
			],
			"mesh":8,
			"name":"chip",
			"scale":[
				0.10000002384185791,
				0.10000002384185791,
				0.06666668504476547
			],
			"translation":[
				-3.6385281085968018,
				-0.7633013725280762,
				5.1583099365234375
			]
		},
		{
			"mesh":9,
			"name":"24wellplate_base",
			"rotation":[
				0.5,
				0.5,
				-0.5,
				0.5
			],
			"scale":[
				0.10000002384185791,
				0.10000002384185791,
				0.10000002384185791
			],
			"translation":[
				0.11094355583190918,
				-0.7715325355529785,
				6.620746612548828
			]
		}
	],
	"materials":[
		{
			"doubleSided":true,
			"name":"Material.003",
			"pbrMetallicRoughness":{
				"baseColorFactor":[
					0.10313482582569122,
					0.10313482582569122,
					0.10313482582569122,
					1
				],
				"metallicFactor":0.20000000298023224,
				"roughnessFactor":0.5
			}
		},
		{
			"doubleSided":true,
			"extensions":{
				"KHR_materials_specular":{
					"specularFactor":0
				}
			},
			"name":"Opaque(192,192,192)",
			"pbrMetallicRoughness":{
				"baseColorFactor":[
					0.7529410123825073,
					0.7529410123825073,
					0.7529410123825073,
					1
				],
				"metallicFactor":0
			}
		},
		{
			"doubleSided":true,
			"extensions":{
				"KHR_materials_specular":{
					"specularFactor":0
				}
			},
			"name":"Opaque(247,33,0)",
			"pbrMetallicRoughness":{
				"baseColorFactor":[
					0.9686269760131836,
					0.1294119954109192,
					0,
					1
				],
				"metallicFactor":0
			}
		},
		{
			"doubleSided":true,
			"extensions":{
				"KHR_materials_specular":{
					"specularFactor":0
				}
			},
			"name":"Opaque(232,113,8)",
			"pbrMetallicRoughness":{
				"baseColorFactor":[
					0.9098039865493774,
					0.443136990070343,
					0.031373001635074615,
					1
				],
				"metallicFactor":0
			}
		},
		{
			"doubleSided":true,
			"extensions":{
				"KHR_materials_specular":{
					"specularFactor":0
				}
			},
			"name":"Opaque(192,192,0)",
			"pbrMetallicRoughness":{
				"baseColorFactor":[
					0.7529410123825073,
					0.7529410123825073,
					0,
					1
				],
				"metallicFactor":0
			}
		},
		{
			"doubleSided":true,
			"extensions":{
				"KHR_materials_specular":{
					"specularFactor":0
				}
			},
			"name":"Opaque(255,255,255)",
			"pbrMetallicRoughness":{
				"metallicFactor":0
			}
		},
		{
			"doubleSided":true,
			"extensions":{
				"KHR_materials_specular":{
					"specularFactor":0
				}
			},
			"name":"Opaque(63,63,63)",
			"pbrMetallicRoughness":{
				"baseColorFactor":[
					0.2509799897670746,
					0.2509799897670746,
					0.2509799897670746,
					1
				],
				"metallicFactor":0
			}
		},
		{
			"doubleSided":true,
			"extensions":{
				"KHR_materials_specular":{
					"specularFactor":0
				}
			},
			"name":"Opaque(202,209,238)",
			"pbrMetallicRoughness":{
				"baseColorFactor":[
					0.792156994342804,
					0.8196079730987549,
					0.9333329796791077,
					1
				],
				"metallicFactor":0
			}
		},
		{
			"doubleSided":true,
			"extensions":{
				"KHR_materials_specular":{
					"specularFactor":0
				}
			},
			"name":"Opaque(255,255,0)",
			"pbrMetallicRoughness":{
				"baseColorFactor":[
					1,
					1,
					0,
					1
				],
				"metallicFactor":0
			}
		},
		{
			"doubleSided":true,
			"extensions":{
				"KHR_materials_specular":{
					"specularFactor":0
				}
			},
			"name":"Opaque(255,255,227)",
			"pbrMetallicRoughness":{
				"baseColorFactor":[
					1,
					1,
					0.8901960253715515,
					1
				],
				"metallicFactor":0
			}
		},
		{
			"doubleSided":true,
			"extensions":{
				"KHR_materials_specular":{
					"specularFactor":0
				}
			},
			"name":"Opaque(26,26,26)",
			"pbrMetallicRoughness":{
				"baseColorFactor":[
					0.10196100175380707,
					0.10196100175380707,
					0.10196100175380707,
					1
				],
				"metallicFactor":0
			}
		},
		{
			"doubleSided":true,
			"name":"black_wireframe",
			"pbrMetallicRoughness":{
				"baseColorFactor":[
					0,
					0,
					0,
					1
				]
			}
		},
		{
			"doubleSided":true,
			"extensions":{
				"KHR_materials_specular":{
					"specularFactor":0
				}
			},
			"name":"Steel_-_Satin",
			"pbrMetallicRoughness":{
				"baseColorFactor":[
					0.16005784273147583,
					0.16005784273147583,
					0.16005784273147583,
					1
				],
				"metallicFactor":0
			}
		},
		{
			"doubleSided":true,
			"extensions":{
				"KHR_materials_specular":{
					"specularFactor":0
				}
			},
			"name":"Opaque(202,209,238).001",
			"pbrMetallicRoughness":{
				"baseColorFactor":[
					0.792156994342804,
					0.8196079730987549,
					0.9333329796791077,
					1
				],
				"metallicFactor":0
			}
		},
		{
			"doubleSided":true,
			"extensions":{
				"KHR_materials_specular":{
					"specularFactor":0
				}
			},
			"name":"Opaque(63,63,63).001",
			"pbrMetallicRoughness":{
				"baseColorFactor":[
					0.2509799897670746,
					0.2509799897670746,
					0.2509799897670746,
					1
				],
				"metallicFactor":0
			}
		},
		{
			"doubleSided":true,
			"extensions":{
				"KHR_materials_specular":{
					"specularFactor":0
				}
			},
			"name":"Opaque(255,206,127)",
			"pbrMetallicRoughness":{
				"baseColorFactor":[
					1,
					0.807843029499054,
					0.49803900718688965,
					1
				],
				"metallicFactor":0
			}
		},
		{
			"doubleSided":true,
			"extensions":{
				"KHR_materials_specular":{
					"specularFactor":0
				}
			},
			"name":"Opaque(25,25,25)",
			"pbrMetallicRoughness":{
				"baseColorFactor":[
					0.02004360593855381,
					0.02004360593855381,
					0.02004360593855381,
					1
				],
				"metallicFactor":0
			}
		},
		{
			"doubleSided":true,
			"extensions":{
				"KHR_materials_specular":{
					"specularFactor":0
				}
			},
			"name":"Opaque(38,37,37)",
			"pbrMetallicRoughness":{
				"baseColorFactor":[
					0.057440564036369324,
					0.05602383241057396,
					0.05602383241057396,
					1
				],
				"metallicFactor":0
			}
		},
		{
			"doubleSided":true,
			"extensions":{
				"KHR_materials_specular":{
					"specularFactor":0
				}
			},
			"name":"Opaque(219,188,126)",
			"pbrMetallicRoughness":{
				"baseColorFactor":[
					0.8588240146636963,
					0.7372549772262573,
					0.49411800503730774,
					1
				],
				"roughnessFactor":0.5
			}
		},
		{
			"doubleSided":true,
			"extensions":{
				"KHR_materials_specular":{
					"specularFactor":0
				}
			},
			"name":"Opaque(80,124,105)",
			"pbrMetallicRoughness":{
				"baseColorFactor":[
					0.11060826480388641,
					0.29769283533096313,
					0.13994914293289185,
					1
				],
				"roughnessFactor":0.4000000059604645
			}
		},
		{
			"doubleSided":true,
			"extensions":{
				"KHR_materials_specular":{
					"specularFactor":0
				}
			},
			"name":"molex_clip",
			"pbrMetallicRoughness":{
				"baseColorFactor":[
					0.017225230112671852,
					0.017225230112671852,
					0.017225230112671852,
					1
				],
				"metallicFactor":0
			}
		},
		{
			"doubleSided":true,
			"name":"molex_metal",
			"pbrMetallicRoughness":{
				"baseColorFactor":[
					0.4076292812824249,
					0.32770252227783203,
					0.10996834188699722,
					1
				],
				"roughnessFactor":0.20000000298023224
			}
		},
		{
			"alphaMode":"BLEND",
			"doubleSided":true,
			"name":"PI_flexcable",
			"pbrMetallicRoughness":{
				"baseColorFactor":[
					0.8003076910972595,
					0.35607457160949707,
					0.19071108102798462,
					0.6000000238418579
				],
				"metallicFactor":0.9444444179534912,
				"roughnessFactor":0.30000001192092896
			}
		},
		{
			"doubleSided":true,
			"name":"Gold",
			"pbrMetallicRoughness":{
				"baseColorFactor":[
					0.8001194596290588,
					0.27362769842147827,
					0.0017517398810014129,
					1
				],
				"metallicFactor":0.9370079040527344,
				"roughnessFactor":0.023622043430805206
			}
		},
		{
			"alphaMode":"BLEND",
			"doubleSided":true,
			"name":"ITO",
			"pbrMetallicRoughness":{
				"baseColorFactor":[
					0.3371725380420685,
					0.35047677159309387,
					0.20971426367759705,
					0.10000000149011612
				],
				"roughnessFactor":0.29133856296539307
			}
		},
		{
			"alphaMode":"BLEND",
			"doubleSided":true,
			"extensions":{
				"KHR_materials_specular":{
					"specularFactor":0.4960629940032959
				}
			},
			"name":"Blue",
			"pbrMetallicRoughness":{
				"baseColorFactor":[
					0,
					0.065449558198452,
					0.6222946643829346,
					0.5196850299835205
				],
				"metallicFactor":0.5905511975288391,
				"roughnessFactor":0.16929133236408234
			}
		},
		{
			"alphaMode":"BLEND",
			"doubleSided":true,
			"name":"Material.002",
			"pbrMetallicRoughness":{
				"baseColorFactor":[
					0.800000011920929,
					0.800000011920929,
					0.800000011920929,
					0.24000000953674316
				],
				"roughnessFactor":0
			}
		},
		{
			"alphaMode":"BLEND",
			"doubleSided":true,
			"name":"Material.001",
			"pbrMetallicRoughness":{
				"baseColorFactor":[
					0.800000011920929,
					0.800000011920929,
					0.800000011920929,
					0.20000000298023224
				],
				"roughnessFactor":0.36000001430511475
			}
		}
	],
	"meshes":[
		{
			"name":"Cube.006",
			"primitives":[
				{
					"attributes":{
						"POSITION":0,
						"NORMAL":1,
						"TEXCOORD_0":2
					},
					"indices":3,
					"material":0
				}
			]
		},
		{
			"name":"Cube.007",
			"primitives":[
				{
					"attributes":{
						"POSITION":4,
						"NORMAL":5,
						"TEXCOORD_0":6
					},
					"indices":7,
					"material":0
				}
			]
		},
		{
			"name":"RHS2116_32",
			"primitives":[
				{
					"attributes":{
						"POSITION":8,
						"NORMAL":9,
						"TEXCOORD_0":10
					},
					"indices":11,
					"material":1
				},
				{
					"attributes":{
						"POSITION":12,
						"NORMAL":13,
						"TEXCOORD_0":14
					},
					"indices":15,
					"material":2
				},
				{
					"attributes":{
						"POSITION":16,
						"NORMAL":17,
						"TEXCOORD_0":18
					},
					"indices":19,
					"material":3
				},
				{
					"attributes":{
						"POSITION":20,
						"NORMAL":21,
						"TEXCOORD_0":22
					},
					"indices":23,
					"material":4
				},
				{
					"attributes":{
						"POSITION":24,
						"NORMAL":25,
						"TEXCOORD_0":26
					},
					"indices":27,
					"material":5
				},
				{
					"attributes":{
						"POSITION":28,
						"NORMAL":29,
						"TEXCOORD_0":30
					},
					"indices":31,
					"material":6
				},
				{
					"attributes":{
						"POSITION":32,
						"NORMAL":33,
						"TEXCOORD_0":34
					},
					"indices":35,
					"material":7
				},
				{
					"attributes":{
						"POSITION":36,
						"NORMAL":37,
						"TEXCOORD_0":38
					},
					"indices":39,
					"material":8
				},
				{
					"attributes":{
						"POSITION":40,
						"NORMAL":41,
						"TEXCOORD_0":42
					},
					"indices":43,
					"material":9
				},
				{
					"attributes":{
						"POSITION":44,
						"NORMAL":45,
						"TEXCOORD_0":46
					},
					"indices":47,
					"material":10
				},
				{
					"attributes":{
						"POSITION":48,
						"NORMAL":49,
						"TEXCOORD_0":50
					},
					"indices":51,
					"material":11
				}
			]
		},
		{
			"name":"FFC_to_pin_headers",
			"primitives":[
				{
					"attributes":{
						"POSITION":52,
						"NORMAL":53,
						"TEXCOORD_0":54
					},
					"indices":55,
					"material":12
				},
				{
					"attributes":{
						"POSITION":56,
						"NORMAL":57,
						"TEXCOORD_0":58
					},
					"indices":59,
					"material":13
				},
				{
					"attributes":{
						"POSITION":60,
						"NORMAL":61,
						"TEXCOORD_0":62
					},
					"indices":63,
					"material":14
				},
				{
					"attributes":{
						"POSITION":64,
						"NORMAL":65,
						"TEXCOORD_0":66
					},
					"indices":67,
					"material":15
				},
				{
					"attributes":{
						"POSITION":68,
						"NORMAL":69,
						"TEXCOORD_0":70
					},
					"indices":71,
					"material":16
				},
				{
					"attributes":{
						"POSITION":72,
						"NORMAL":73,
						"TEXCOORD_0":74
					},
					"indices":75,
					"material":17
				},
				{
					"attributes":{
						"POSITION":76,
						"NORMAL":77,
						"TEXCOORD_0":78
					},
					"indices":79,
					"material":18
				},
				{
					"attributes":{
						"POSITION":80,
						"NORMAL":81,
						"TEXCOORD_0":82
					},
					"indices":83,
					"material":19
				},
				{
					"attributes":{
						"POSITION":84,
						"NORMAL":85,
						"TEXCOORD_0":86
					},
					"indices":87,
					"material":20
				},
				{
					"attributes":{
						"POSITION":88,
						"NORMAL":89,
						"TEXCOORD_0":90
					},
					"indices":91,
					"material":21
				},
				{
					"attributes":{
						"POSITION":92,
						"NORMAL":93,
						"TEXCOORD_0":94
					},
					"indices":95,
					"material":11
				}
			]
		},
		{
			"name":"Cube.008",
			"primitives":[
				{
					"attributes":{
						"POSITION":96,
						"NORMAL":97,
						"TEXCOORD_0":98
					},
					"indices":99,
					"material":22
				}
			]
		},
		{
			"name":"gdsii_1",
			"primitives":[
				{
					"attributes":{
						"POSITION":100,
						"NORMAL":101
					},
					"indices":102,
					"material":23
				},
				{
					"attributes":{
						"POSITION":103,
						"NORMAL":104
					},
					"indices":105,
					"material":11
				}
			]
		},
		{
			"name":"gdsii_2",
			"primitives":[
				{
					"attributes":{
						"POSITION":106,
						"NORMAL":107
					},
					"indices":108,
					"material":24
				},
				{
					"attributes":{
						"POSITION":109,
						"NORMAL":110
					},
					"indices":111,
					"material":11
				}
			]
		},
		{
			"name":"gdsii_3",
			"primitives":[
				{
					"attributes":{
						"POSITION":112,
						"NORMAL":113
					},
					"indices":114,
					"material":25
				},
				{
					"attributes":{
						"POSITION":115,
						"NORMAL":116
					},
					"indices":117,
					"material":11
				}
			]
		},
		{
			"name":"Plane.002",
			"primitives":[
				{
					"attributes":{
						"POSITION":118,
						"NORMAL":119,
						"TEXCOORD_0":120
					},
					"indices":121,
					"material":26
				}
			]
		},
		{
			"name":"24wellplate_base",
			"primitives":[
				{
					"attributes":{
						"POSITION":122,
						"NORMAL":123
					},
					"indices":124,
					"material":27
				},
				{
					"attributes":{
						"POSITION":125,
						"NORMAL":126
					},
					"indices":127,
					"material":11
				}
			]
		}
	],
	"accessors":[
		{
			"bufferView":0,
			"componentType":5126,
			"count":839,
			"max":[
				54.922874450683594,
				5.328217506408691,
				11.000030517578125
			],
			"min":[
				-20.486902236938477,
				0,
				-11.000032424926758
			],
			"type":"VEC3"
		},
		{
			"bufferView":1,
			"componentType":5126,
			"count":839,
			"type":"VEC3"
		},
		{
			"bufferView":2,
			"componentType":5126,
			"count":839,
			"type":"VEC2"
		},
		{
			"bufferView":3,
			"componentType":5123,
			"count":2226,
			"type":"SCALAR"
		},
		{
			"bufferView":4,
			"componentType":5126,
			"count":607,
			"max":[
				54.922874450683594,
				8.32822036743164,
				11.000030517578125
			],
			"min":[
				-20.486902236938477,
				5.328217506408691,
				-11.000028610229492
			],
			"type":"VEC3"
		},
		{
			"bufferView":5,
			"componentType":5126,
			"count":607,
			"type":"VEC3"
		},
		{
			"bufferView":6,
			"componentType":5126,
			"count":607,
			"type":"VEC2"
		},
		{
			"bufferView":7,
			"componentType":5123,
			"count":1521,
			"type":"SCALAR"
		},
		{
			"bufferView":8,
			"componentType":5126,
			"count":5316,
			"max":[
				13.625,
				1.337399959564209,
				-0.868399977684021
			],
			"min":[
				0.8044999837875366,
				-0.550000011920929,
				-15.774999618530273
			],
			"type":"VEC3"
		},
		{
			"bufferView":9,
			"componentType":5126,
			"count":5316,
			"type":"VEC3"
		},
		{
			"bufferView":10,
			"componentType":5126,
			"count":5316,
			"type":"VEC2"
		},
		{
			"bufferView":11,
			"componentType":5123,
			"count":13014,
			"type":"SCALAR"
		},
		{
			"bufferView":12,
			"componentType":5126,
			"count":6132,
			"max":[
				14.604999542236328,
				0.7874000072479248,
				0
			],
			"min":[
				0,
				0,
				-23.177499771118164
			],
			"type":"VEC3"
		},
		{
			"bufferView":13,
			"componentType":5126,
			"count":6132,
			"type":"VEC3"
		},
		{
			"bufferView":14,
			"componentType":5126,
			"count":6132,
			"type":"VEC2"
		},
		{
			"bufferView":15,
			"componentType":5123,
			"count":21996,
			"type":"SCALAR"
		},
		{
			"bufferView":16,
			"componentType":5126,
			"count":96,
			"max":[
				13.191299438476562,
				1.2874000072479248,
				-0.91839998960495
			],
			"min":[
				2.2899999618530273,
				-0.5,
				-12.67020034790039
			],
			"type":"VEC3"
		},
		{
			"bufferView":17,
			"componentType":5126,
			"count":96,
			"type":"VEC3"
		},
		{
			"bufferView":18,
			"componentType":5126,
			"count":96,
			"type":"VEC2"
		},
		{
			"bufferView":19,
			"componentType":5123,
			"count":144,
			"type":"SCALAR"
		},
		{
			"bufferView":20,
			"componentType":5126,
			"count":12,
			"max":[
				1.3044999837875366,
				1.1373999118804932,
				-13.288400650024414
			],
			"min":[
				0.8544999957084656,
				0.7874000072479248,
				-13.838399887084961
			],
			"type":"VEC3"
		},
		{
			"bufferView":21,
			"componentType":5126,
			"count":12,
			"type":"VEC3"
		},
		{
			"bufferView":22,
			"componentType":5126,
			"count":12,
			"type":"VEC2"
		},
		{
			"bufferView":23,
			"componentType":5123,
			"count":18,
			"type":"SCALAR"
		},
		{
			"bufferView":24,
			"componentType":5126,
			"count":120,
			"max":[
				13.269100189208984,
				1.0074000358581543,
				-2.174099922180176
			],
			"min":[
				4.663000106811523,
				-0.2199999988079071,
				-12.532800674438477
			],
			"type":"VEC3"
		},
		{
			"bufferView":25,
			"componentType":5126,
			"count":120,
			"type":"VEC3"
		},
		{
			"bufferView":26,
			"componentType":5126,
			"count":120,
			"type":"VEC2"
		},
		{
			"bufferView":27,
			"componentType":5123,
			"count":180,
			"type":"SCALAR"
		},
		{
			"bufferView":28,
			"componentType":5126,
			"count":1584,
			"max":[
				13.447609901428223,
				2.5780999660491943,
				-2.174099922180176
			],
			"min":[
				1.2068899869918823,
				-0.23000000417232513,
				-22.465970993041992
			],
			"type":"VEC3"
		},
		{
			"bufferView":29,
			"componentType":5126,
			"count":1584,
			"type":"VEC3"
		},
		{
			"bufferView":30,
			"componentType":5126,
			"count":1584,
			"type":"VEC2"
		},
		{
			"bufferView":31,
			"componentType":5123,
			"count":4566,
			"type":"SCALAR"
		},
		{
			"bufferView":32,
			"componentType":5126,
			"count":33333,
			"max":[
				13.538199424743652,
				2.5780999660491943,
				-3.492499828338623
			],
			"min":[
				0.7620000243186951,
				-0.020000001415610313,
				-25.603199005126953
			],
			"type":"VEC3"
		},
		{
			"bufferView":33,
			"componentType":5126,
			"count":33333,
			"type":"VEC3"
		},
		{
			"bufferView":34,
			"componentType":5126,
			"count":33333,
			"type":"VEC2"
		},
		{
			"bufferView":35,
			"componentType":5123,
			"count":147498,
			"type":"SCALAR"
		},
		{
			"bufferView":36,
			"componentType":5126,
			"count":16696,
			"max":[
				12.859590530395508,
				2.5399999618530273,
				0.825499951839447
			],
			"min":[
				1.7454099655151367,
				1.0464800596237183,
				-24.815799713134766
			],
			"type":"VEC3"
		},
		{
			"bufferView":37,
			"componentType":5126,
			"count":16696,
			"type":"VEC3"
		},
		{
			"bufferView":38,
			"componentType":5126,
			"count":16696,
			"type":"VEC2"
		},
		{
			"bufferView":39,
			"componentType":5123,
			"count":61728,
			"type":"SCALAR"
		},
		{
			"bufferView":40,
			"componentType":5126,
			"count":4746,
			"max":[
				13.843000411987305,
				2.7559499740600586,
				0.825499951839447
			],
			"min":[
				0.7620000243186951,
				0.7873899936676025,
				-23.24100112915039
			],
			"type":"VEC3"
		},
		{
			"bufferView":41,
			"componentType":5126,
			"count":4746,
			"type":"VEC3"
		},
		{
			"bufferView":42,
			"componentType":5126,
			"count":4746,
			"type":"VEC2"
		},
		{
			"bufferView":43,
			"componentType":5123,
			"count":15990,
			"type":"SCALAR"
		},
		{
			"bufferView":44,
			"componentType":5126,
			"count":48,
			"max":[
				10.802509307861328,
				1.6373999118804932,
				-8.984089851379395
			],
			"min":[
				3.802489995956421,
				-0.8500000238418579,
				-15.984090805053711
			],
			"type":"VEC3"
		},
		{
			"bufferView":45,
			"componentType":5126,
			"count":48,
			"type":"VEC3"
		},
		{
			"bufferView":46,
			"componentType":5126,
			"count":48,
			"type":"VEC2"
		},
		{
			"bufferView":47,
			"componentType":5123,
			"count":72,
			"type":"SCALAR"
		},
		{
			"bufferView":48,
			"componentType":5126,
			"count":39432,
			"max":[
				14.654999732971191,
				2.8059499263763428,
				0.875499963760376
			],
			"min":[
				-0.05000000074505806,
				-0.9000000357627869,
				-25.195999145507812
			],
			"type":"VEC3"
		},
		{
			"bufferView":49,
			"componentType":5126,
			"count":39432,
			"type":"VEC3"
		},
		{
			"bufferView":50,
			"componentType":5126,
			"count":39432,
			"type":"VEC2"
		},
		{
			"bufferView":51,
			"componentType":5123,
			"count":217368,
			"type":"SCALAR"
		},
		{
			"bufferView":52,
			"componentType":5126,
			"count":10698,
			"max":[
				-3.1833362579345703,
				1.0412933826446533,
				0.24488449096679688
			],
			"min":[
				-24.68334197998047,
				-0.8587063550949097,
				-4.905118942260742
			],
			"type":"VEC3"
		},
		{
			"bufferView":53,
			"componentType":5126,
			"count":10698,
			"type":"VEC3"
		},
		{
			"bufferView":54,
			"componentType":5126,
			"count":10698,
			"type":"VEC2"
		},
		{
			"bufferView":55,
			"componentType":5123,
			"count":24882,
			"type":"SCALAR"
		},
		{
			"bufferView":56,
			"componentType":5126,
			"count":9565,
			"max":[
				10.978860855102539,
				0.9502935409545898,
				7.437887191772461
			],
			"min":[
				6.584644317626953,
				-0.8277064561843872,
				-5.643119812011719
			],
			"type":"VEC3"
		},
		{
			"bufferView":57,
			"componentType":5126,
			"count":9565,
			"type":"VEC3"
		},
		{
			"bufferView":58,
			"componentType":5126,
			"count":9565,
			"type":"VEC2"
		},
		{
			"bufferView":59,
			"componentType":5123,
			"count":34083,
			"type":"SCALAR"
		},
		{
			"bufferView":60,
			"componentType":5126,
			"count":1438,
			"max":[
				9.2767333984375,
				0.9629935026168823,
				6.725702285766602
			],
			"min":[
				8.28679084777832,
				0.9502935409545898,
				-4.980430603027344
			],
			"type":"VEC3"
		},
		{
			"bufferView":61,
			"componentType":5126,
			"count":1438,
			"type":"VEC3"
		},
		{
			"bufferView":62,
			"componentType":5126,
			"count":1438,
			"type":"VEC2"
		},
		{
			"bufferView":63,
			"componentType":5123,
			"count":3390,
			"type":"SCALAR"
		},
		{
			"bufferView":64,
			"componentType":5126,
			"count":6516,
			"max":[
				6.584663391113281,
				0.841323733329773,
				7.437887191772461
			],
			"min":[
				4.679660797119141,
				-0.8277064561843872,
				-5.643119812011719
			],
			"type":"VEC3"
		},
		{
			"bufferView":65,
			"componentType":5126,
			"count":6516,
			"type":"VEC3"
		},
		{
			"bufferView":66,
			"componentType":5126,
			"count":6516,
			"type":"VEC2"
		},
		{
			"bufferView":67,
			"componentType":5123,
			"count":16470,
			"type":"SCALAR"
		},
		{
			"bufferView":68,
			"componentType":5126,
			"count":556,
			"max":[
				6.584663391113281,
				0.8867937326431274,
				7.437887191772461
			],
			"min":[
				6.330661773681641,
				-0.7642164826393127,
				-5.643119812011719
			],
			"type":"VEC3"
		},
		{
			"bufferView":69,
			"componentType":5126,
			"count":556,
			"type":"VEC3"
		},
		{
			"bufferView":70,
			"componentType":5126,
			"count":556,
			"type":"VEC2"
		},
		{
			"bufferView":71,
			"componentType":5123,
			"count":1857,
			"type":"SCALAR"
		},
		{
			"bufferView":72,
			"componentType":5126,
			"count":56,
			"max":[
				-20.11333465576172,
				1.7012935876846313,
				8.83488655090332
			],
			"min":[
				-22.65334129333496,
				-0.838706374168396,
				6.294889450073242
			],
			"type":"VEC3"
		},
		{
			"bufferView":73,
			"componentType":5126,
			"count":56,
			"type":"VEC3"
		},
		{
			"bufferView":74,
			"componentType":5126,
			"count":56,
			"type":"VEC2"
		},
		{
			"bufferView":75,
			"componentType":5123,
			"count":120,
			"type":"SCALAR"
		},
		{
			"bufferView":76,
			"componentType":5126,
			"count":110,
			"max":[
				-14.113340377807617,
				0.7512935996055603,
				7.884883880615234
			],
			"min":[
				-24.473342895507812,
				-3.8387064933776855,
				7.244882583618164
			],
			"type":"VEC3"
		},
		{
			"bufferView":77,
			"componentType":5126,
			"count":110,
			"type":"VEC3"
		},
		{
			"bufferView":78,
			"componentType":5126,
			"count":110,
			"type":"VEC2"
		},
		{
			"bufferView":79,
			"componentType":5123,
			"count":204,
			"type":"SCALAR"
		},
		{
			"bufferView":80,
			"componentType":5126,
			"count":250,
			"max":[
				10.507345199584961,
				-0.8887064456939697,
				10.120887756347656
			],
			"min":[
				-27.64333724975586,
				-2.488706350326538,
				-8.735113143920898
			],
			"type":"VEC3"
		},
		{
			"bufferView":81,
			"componentType":5126,
			"count":250,
			"type":"VEC3"
		},
		{
			"bufferView":82,
			"componentType":5126,
			"count":250,
			"type":"VEC2"
		},
		{
			"bufferView":83,
			"componentType":5123,
			"count":672,
			"type":"SCALAR"
		},
		{
			"bufferView":84,
			"componentType":5126,
			"count":1247,
			"max":[
				-4.193334579467773,
				0.9912934899330139,
				-2.0551109313964844
			],
			"min":[
				-23.6733341217041,
				0.09129345417022705,
				-5.0051116943359375
			],
			"type":"VEC3"
		},
		{
			"bufferView":85,
			"componentType":5126,
			"count":1247,
			"type":"VEC3"
		},
		{
			"bufferView":86,
			"componentType":5126,
			"count":1247,
			"type":"VEC2"
		},
		{
			"bufferView":87,
			"componentType":5123,
			"count":2412,
			"type":"SCALAR"
		},
		{
			"bufferView":88,
			"componentType":5126,
			"count":1794,
			"max":[
				-6.108341217041016,
				0.8412936329841614,
				0.29488563537597656
			],
			"min":[
				-21.758337020874023,
				-0.8587063550949097,
				-0.10511398315429688
			],
			"type":"VEC3"
		},
		{
			"bufferView":89,
			"componentType":5126,
			"count":1794,
			"type":"VEC3"
		},
		{
			"bufferView":90,
			"componentType":5126,
			"count":1794,
			"type":"VEC2"
		},
		{
			"bufferView":91,
			"componentType":5123,
			"count":2886,
			"type":"SCALAR"
		},
		{
			"bufferView":92,
			"componentType":5126,
			"count":39288,
			"max":[
				11.028861045837402,
				1.7474875450134277,
				10.170886993408203
			],
			"min":[
				-27.693336486816406,
				-3.678706169128418,
				-8.785112380981445
			],
			"type":"VEC3"
		},
		{
			"bufferView":93,
			"componentType":5126,
			"count":39288,
			"type":"VEC3"
		},
		{
			"bufferView":94,
			"componentType":5126,
			"count":39288,
			"type":"VEC2"
		},
		{
			"bufferView":95,
			"componentType":5123,
			"count":199584,
			"type":"SCALAR"
		},
		{
			"bufferView":96,
			"componentType":5126,
			"count":1664,
			"max":[
				-17.533939361572266,
				1.4872437715530396,
				15.199481010437012
			],
			"min":[
				-40.433128356933594,
				-10.798534393310547,
				-26.98539161682129
			],
			"type":"VEC3"
		},
		{
			"bufferView":97,
			"componentType":5126,
			"count":1664,
			"type":"VEC3"
		},
		{
			"bufferView":98,
			"componentType":5126,
			"count":1664,
			"type":"VEC2"
		},
		{
			"bufferView":99,
			"componentType":5123,
			"count":2532,
			"type":"SCALAR"
		},
		{
			"bufferView":100,
			"componentType":5126,
			"count":99505,
			"max":[
				49.99934387207031,
				0.09999871253967285,
				-9.9998705991311e-06
			],
			"min":[
				9.9998705991311e-06,
				0,
				-74.9990234375
			],
			"type":"VEC3"
		},
		{
			"bufferView":101,
			"componentType":5126,
			"count":99505,
			"type":"VEC3"
		},
		{
			"bufferView":102,
			"componentType":5125,
			"count":177960,
			"type":"SCALAR"
		},
		{
			"bufferView":103,
			"componentType":5126,
			"count":189640,
			"max":[
				50.009342193603516,
				0.10999871045351028,
				0.009990000165998936
			],
			"min":[
				-0.009990000165998936,
				-0.009999999776482582,
				-75.00902557373047
			],
			"type":"VEC3"
		},
		{
			"bufferView":104,
			"componentType":5126,
			"count":189640,
			"type":"VEC3"
		},
		{
			"bufferView":105,
			"componentType":5125,
			"count":851784,
			"type":"SCALAR"
		},
		{
			"bufferView":106,
			"componentType":5126,
			"count":40876,
			"max":[
				44.80030822753906,
				0.09999871253967285,
				-4.632450103759766
			],
			"min":[
				5.964443206787109,
				0,
				-69.79998779296875
			],
			"type":"VEC3"
		},
		{
			"bufferView":107,
			"componentType":5126,
			"count":40876,
			"type":"VEC3"
		},
		{
			"bufferView":108,
			"componentType":5123,
			"count":71016,
			"type":"SCALAR"
		},
		{
			"bufferView":109,
			"componentType":5126,
			"count":74920,
			"max":[
				44.810306549072266,
				0.10999871045351028,
				-4.62244987487793
			],
			"min":[
				5.9544548988342285,
				-0.009999999776482582,
				-69.80998992919922
			],
			"type":"VEC3"
		},
		{
			"bufferView":110,
			"componentType":5126,
			"count":74920,
			"type":"VEC3"
		},
		{
			"bufferView":111,
			"componentType":5125,
			"count":336312,
			"type":"SCALAR"
		},
		{
			"bufferView":112,
			"componentType":5126,
			"count":67377,
			"max":[
				44.74940490722656,
				0.09999871253967285,
				-5.132443904876709
			],
			"min":[
				5.964443206787109,
				0,
				-69.74907684326172
			],
			"type":"VEC3"
		},
		{
			"bufferView":113,
			"componentType":5126,
			"count":67377,
			"type":"VEC3"
		},
		{
			"bufferView":114,
			"componentType":5125,
			"count":111336,
			"type":"SCALAR"
		},
		{
			"bufferView":115,
			"componentType":5126,
			"count":100928,
			"max":[
				44.759403228759766,
				0.10999871045351028,
				-5.122443675994873
			],
			"min":[
				5.9544548988342285,
				-0.009999999776482582,
				-69.75907135009766
			],
			"type":"VEC3"
		},
		{
			"bufferView":116,
			"componentType":5126,
			"count":100928,
			"type":"VEC3"
		},
		{
			"bufferView":117,
			"componentType":5125,
			"count":496560,
			"type":"SCALAR"
		},
		{
			"bufferView":118,
			"componentType":5126,
			"count":24,
			"max":[
				75,
				0,
				0
			],
			"min":[
				0,
				-1.3243663311004639,
				-75
			],
			"type":"VEC3"
		},
		{
			"bufferView":119,
			"componentType":5126,
			"count":24,
			"type":"VEC3"
		},
		{
			"bufferView":120,
			"componentType":5126,
			"count":24,
			"type":"VEC2"
		},
		{
			"bufferView":121,
			"componentType":5123,
			"count":36,
			"type":"SCALAR"
		},
		{
			"bufferView":122,
			"componentType":5126,
			"count":14620,
			"max":[
				127.89000701904297,
				42.790000915527344,
				0
			],
			"min":[
				-2.70132378447212e-29,
				-42.790000915527344,
				-20.020000457763672
			],
			"type":"VEC3"
		},
		{
			"bufferView":123,
			"componentType":5126,
			"count":14620,
			"type":"VEC3"
		},
		{
			"bufferView":124,
			"componentType":5123,
			"count":29724,
			"type":"SCALAR"
		},
		{
			"bufferView":125,
			"componentType":5126,
			"count":9976,
			"max":[
				127.99000549316406,
				42.889923095703125,
				0.10000000149011612
			],
			"min":[
				-0.10000000149011612,
				-42.889923095703125,
				-20.1200008392334
			],
			"type":"VEC3"
		},
		{
			"bufferView":126,
			"componentType":5126,
			"count":9976,
			"type":"VEC3"
		},
		{
			"bufferView":127,
			"componentType":5123,
			"count":59712,
			"type":"SCALAR"
		}
	],
	"bufferViews":[
		{
			"buffer":0,
			"byteLength":10068,
			"byteOffset":0,
			"target":34962
		},
		{
			"buffer":0,
			"byteLength":10068,
			"byteOffset":10068,
			"target":34962
		},
		{
			"buffer":0,
			"byteLength":6712,
			"byteOffset":20136,
			"target":34962
		},
		{
			"buffer":0,
			"byteLength":4452,
			"byteOffset":26848,
			"target":34963
		},
		{
			"buffer":0,
			"byteLength":7284,
			"byteOffset":31300,
			"target":34962
		},
		{
			"buffer":0,
			"byteLength":7284,
			"byteOffset":38584,
			"target":34962
		},
		{
			"buffer":0,
			"byteLength":4856,
			"byteOffset":45868,
			"target":34962
		},
		{
			"buffer":0,
			"byteLength":3042,
			"byteOffset":50724,
			"target":34963
		},
		{
			"buffer":0,
			"byteLength":63792,
			"byteOffset":53768,
			"target":34962
		},
		{
			"buffer":0,
			"byteLength":63792,
			"byteOffset":117560,
			"target":34962
		},
		{
			"buffer":0,
			"byteLength":42528,
			"byteOffset":181352,
			"target":34962
		},
		{
			"buffer":0,
			"byteLength":26028,
			"byteOffset":223880,
			"target":34963
		},
		{
			"buffer":0,
			"byteLength":73584,
			"byteOffset":249908,
			"target":34962
		},
		{
			"buffer":0,
			"byteLength":73584,
			"byteOffset":323492,
			"target":34962
		},
		{
			"buffer":0,
			"byteLength":49056,
			"byteOffset":397076,
			"target":34962
		},
		{
			"buffer":0,
			"byteLength":43992,
			"byteOffset":446132,
			"target":34963
		},
		{
			"buffer":0,
			"byteLength":1152,
			"byteOffset":490124,
			"target":34962
		},
		{
			"buffer":0,
			"byteLength":1152,
			"byteOffset":491276,
			"target":34962
		},
		{
			"buffer":0,
			"byteLength":768,
			"byteOffset":492428,
			"target":34962
		},
		{
			"buffer":0,
			"byteLength":288,
			"byteOffset":493196,
			"target":34963
		},
		{
			"buffer":0,
			"byteLength":144,
			"byteOffset":493484,
			"target":34962
		},
		{
			"buffer":0,
			"byteLength":144,
			"byteOffset":493628,
			"target":34962
		},
		{
			"buffer":0,
			"byteLength":96,
			"byteOffset":493772,
			"target":34962
		},
		{
			"buffer":0,
			"byteLength":36,
			"byteOffset":493868,
			"target":34963
		},
		{
			"buffer":0,
			"byteLength":1440,
			"byteOffset":493904,
			"target":34962
		},
		{
			"buffer":0,
			"byteLength":1440,
			"byteOffset":495344,
			"target":34962
		},
		{
			"buffer":0,
			"byteLength":960,
			"byteOffset":496784,
			"target":34962
		},
		{
			"buffer":0,
			"byteLength":360,
			"byteOffset":497744,
			"target":34963
		},
		{
			"buffer":0,
			"byteLength":19008,
			"byteOffset":498104,
			"target":34962
		},
		{
			"buffer":0,
			"byteLength":19008,
			"byteOffset":517112,
			"target":34962
		},
		{
			"buffer":0,
			"byteLength":12672,
			"byteOffset":536120,
			"target":34962
		},
		{
			"buffer":0,
			"byteLength":9132,
			"byteOffset":548792,
			"target":34963
		},
		{
			"buffer":0,
			"byteLength":399996,
			"byteOffset":557924,
			"target":34962
		},
		{
			"buffer":0,
			"byteLength":399996,
			"byteOffset":957920,
			"target":34962
		},
		{
			"buffer":0,
			"byteLength":266664,
			"byteOffset":1357916,
			"target":34962
		},
		{
			"buffer":0,
			"byteLength":294996,
			"byteOffset":1624580,
			"target":34963
		},
		{
			"buffer":0,
			"byteLength":200352,
			"byteOffset":1919576,
			"target":34962
		},
		{
			"buffer":0,
			"byteLength":200352,
			"byteOffset":2119928,
			"target":34962
		},
		{
			"buffer":0,
			"byteLength":133568,
			"byteOffset":2320280,
			"target":34962
		},
		{
			"buffer":0,
			"byteLength":123456,
			"byteOffset":2453848,
			"target":34963
		},
		{
			"buffer":0,
			"byteLength":56952,
			"byteOffset":2577304,
			"target":34962
		},
		{
			"buffer":0,
			"byteLength":56952,
			"byteOffset":2634256,
			"target":34962
		},
		{
			"buffer":0,
			"byteLength":37968,
			"byteOffset":2691208,
			"target":34962
		},
		{
			"buffer":0,
			"byteLength":31980,
			"byteOffset":2729176,
			"target":34963
		},
		{
			"buffer":0,
			"byteLength":576,
			"byteOffset":2761156,
			"target":34962
		},
		{
			"buffer":0,
			"byteLength":576,
			"byteOffset":2761732,
			"target":34962
		},
		{
			"buffer":0,
			"byteLength":384,
			"byteOffset":2762308,
			"target":34962
		},
		{
			"buffer":0,
			"byteLength":144,
			"byteOffset":2762692,
			"target":34963
		},
		{
			"buffer":0,
			"byteLength":473184,
			"byteOffset":2762836,
			"target":34962
		},
		{
			"buffer":0,
			"byteLength":473184,
			"byteOffset":3236020,
			"target":34962
		},
		{
			"buffer":0,
			"byteLength":315456,
			"byteOffset":3709204,
			"target":34962
		},
		{
			"buffer":0,
			"byteLength":434736,
			"byteOffset":4024660,
			"target":34963
		},
		{
			"buffer":0,
			"byteLength":128376,
			"byteOffset":4459396,
			"target":34962
		},
		{
			"buffer":0,
			"byteLength":128376,
			"byteOffset":4587772,
			"target":34962
		},
		{
			"buffer":0,
			"byteLength":85584,
			"byteOffset":4716148,
			"target":34962
		},
		{
			"buffer":0,
			"byteLength":49764,
			"byteOffset":4801732,
			"target":34963
		},
		{
			"buffer":0,
			"byteLength":114780,
			"byteOffset":4851496,
			"target":34962
		},
		{
			"buffer":0,
			"byteLength":114780,
			"byteOffset":4966276,
			"target":34962
		},
		{
			"buffer":0,
			"byteLength":76520,
			"byteOffset":5081056,
			"target":34962
		},
		{
			"buffer":0,
			"byteLength":68166,
			"byteOffset":5157576,
			"target":34963
		},
		{
			"buffer":0,
			"byteLength":17256,
			"byteOffset":5225744,
			"target":34962
		},
		{
			"buffer":0,
			"byteLength":17256,
			"byteOffset":5243000,
			"target":34962
		},
		{
			"buffer":0,
			"byteLength":11504,
			"byteOffset":5260256,
			"target":34962
		},
		{
			"buffer":0,
			"byteLength":6780,
			"byteOffset":5271760,
			"target":34963
		},
		{
			"buffer":0,
			"byteLength":78192,
			"byteOffset":5278540,
			"target":34962
		},
		{
			"buffer":0,
			"byteLength":78192,
			"byteOffset":5356732,
			"target":34962
		},
		{
			"buffer":0,
			"byteLength":52128,
			"byteOffset":5434924,
			"target":34962
		},
		{
			"buffer":0,
			"byteLength":32940,
			"byteOffset":5487052,
			"target":34963
		},
		{
			"buffer":0,
			"byteLength":6672,
			"byteOffset":5519992,
			"target":34962
		},
		{
			"buffer":0,
			"byteLength":6672,
			"byteOffset":5526664,
			"target":34962
		},
		{
			"buffer":0,
			"byteLength":4448,
			"byteOffset":5533336,
			"target":34962
		},
		{
			"buffer":0,
			"byteLength":3714,
			"byteOffset":5537784,
			"target":34963
		},
		{
			"buffer":0,
			"byteLength":672,
			"byteOffset":5541500,
			"target":34962
		},
		{
			"buffer":0,
			"byteLength":672,
			"byteOffset":5542172,
			"target":34962
		},
		{
			"buffer":0,
			"byteLength":448,
			"byteOffset":5542844,
			"target":34962
		},
		{
			"buffer":0,
			"byteLength":240,
			"byteOffset":5543292,
			"target":34963
		},
		{
			"buffer":0,
			"byteLength":1320,
			"byteOffset":5543532,
			"target":34962
		},
		{
			"buffer":0,
			"byteLength":1320,
			"byteOffset":5544852,
			"target":34962
		},
		{
			"buffer":0,
			"byteLength":880,
			"byteOffset":5546172,
			"target":34962
		},
		{
			"buffer":0,
			"byteLength":408,
			"byteOffset":5547052,
			"target":34963
		},
		{
			"buffer":0,
			"byteLength":3000,
			"byteOffset":5547460,
			"target":34962
		},
		{
			"buffer":0,
			"byteLength":3000,
			"byteOffset":5550460,
			"target":34962
		},
		{
			"buffer":0,
			"byteLength":2000,
			"byteOffset":5553460,
			"target":34962
		},
		{
			"buffer":0,
			"byteLength":1344,
			"byteOffset":5555460,
			"target":34963
		},
		{
			"buffer":0,
			"byteLength":14964,
			"byteOffset":5556804,
			"target":34962
		},
		{
			"buffer":0,
			"byteLength":14964,
			"byteOffset":5571768,
			"target":34962
		},
		{
			"buffer":0,
			"byteLength":9976,
			"byteOffset":5586732,
			"target":34962
		},
		{
			"buffer":0,
			"byteLength":4824,
			"byteOffset":5596708,
			"target":34963
		},
		{
			"buffer":0,
			"byteLength":21528,
			"byteOffset":5601532,
			"target":34962
		},
		{
			"buffer":0,
			"byteLength":21528,
			"byteOffset":5623060,
			"target":34962
		},
		{
			"buffer":0,
			"byteLength":14352,
			"byteOffset":5644588,
			"target":34962
		},
		{
			"buffer":0,
			"byteLength":5772,
			"byteOffset":5658940,
			"target":34963
		},
		{
			"buffer":0,
			"byteLength":471456,
			"byteOffset":5664712,
			"target":34962
		},
		{
			"buffer":0,
			"byteLength":471456,
			"byteOffset":6136168,
			"target":34962
		},
		{
			"buffer":0,
			"byteLength":314304,
			"byteOffset":6607624,
			"target":34962
		},
		{
			"buffer":0,
			"byteLength":399168,
			"byteOffset":6921928,
			"target":34963
		},
		{
			"buffer":0,
			"byteLength":19968,
			"byteOffset":7321096,
			"target":34962
		},
		{
			"buffer":0,
			"byteLength":19968,
			"byteOffset":7341064,
			"target":34962
		},
		{
			"buffer":0,
			"byteLength":13312,
			"byteOffset":7361032,
			"target":34962
		},
		{
			"buffer":0,
			"byteLength":5064,
			"byteOffset":7374344,
			"target":34963
		},
		{
			"buffer":0,
			"byteLength":1194060,
			"byteOffset":7379408,
			"target":34962
		},
		{
			"buffer":0,
			"byteLength":1194060,
			"byteOffset":8573468,
			"target":34962
		},
		{
			"buffer":0,
			"byteLength":711840,
			"byteOffset":9767528,
			"target":34963
		},
		{
			"buffer":0,
			"byteLength":2275680,
			"byteOffset":10479368,
			"target":34962
		},
		{
			"buffer":0,
			"byteLength":2275680,
			"byteOffset":12755048,
			"target":34962
		},
		{
			"buffer":0,
			"byteLength":3407136,
			"byteOffset":15030728,
			"target":34963
		},
		{
			"buffer":0,
			"byteLength":490512,
			"byteOffset":18437864,
			"target":34962
		},
		{
			"buffer":0,
			"byteLength":490512,
			"byteOffset":18928376,
			"target":34962
		},
		{
			"buffer":0,
			"byteLength":142032,
			"byteOffset":19418888,
			"target":34963
		},
		{
			"buffer":0,
			"byteLength":899040,
			"byteOffset":19560920,
			"target":34962
		},
		{
			"buffer":0,
			"byteLength":899040,
			"byteOffset":20459960,
			"target":34962
		},
		{
			"buffer":0,
			"byteLength":1345248,
			"byteOffset":21359000,
			"target":34963
		},
		{
			"buffer":0,
			"byteLength":808524,
			"byteOffset":22704248,
			"target":34962
		},
		{
			"buffer":0,
			"byteLength":808524,
			"byteOffset":23512772,
			"target":34962
		},
		{
			"buffer":0,
			"byteLength":445344,
			"byteOffset":24321296,
			"target":34963
		},
		{
			"buffer":0,
			"byteLength":1211136,
			"byteOffset":24766640,
			"target":34962
		},
		{
			"buffer":0,
			"byteLength":1211136,
			"byteOffset":25977776,
			"target":34962
		},
		{
			"buffer":0,
			"byteLength":1986240,
			"byteOffset":27188912,
			"target":34963
		},
		{
			"buffer":0,
			"byteLength":288,
			"byteOffset":29175152,
			"target":34962
		},
		{
			"buffer":0,
			"byteLength":288,
			"byteOffset":29175440,
			"target":34962
		},
		{
			"buffer":0,
			"byteLength":192,
			"byteOffset":29175728,
			"target":34962
		},
		{
			"buffer":0,
			"byteLength":72,
			"byteOffset":29175920,
			"target":34963
		},
		{
			"buffer":0,
			"byteLength":175440,
			"byteOffset":29175992,
			"target":34962
		},
		{
			"buffer":0,
			"byteLength":175440,
			"byteOffset":29351432,
			"target":34962
		},
		{
			"buffer":0,
			"byteLength":59448,
			"byteOffset":29526872,
			"target":34963
		},
		{
			"buffer":0,
			"byteLength":119712,
			"byteOffset":29586320,
			"target":34962
		},
		{
			"buffer":0,
			"byteLength":119712,
			"byteOffset":29706032,
			"target":34962
		},
		{
			"buffer":0,
			"byteLength":119424,
			"byteOffset":29825744,
			"target":34963
		}
	],
	"buffers":[
		{
			"byteLength":29945168,
			"uri":"Wellplate_gltf.bin"
		}
	]
}
